<?xml version="1.0" encoding="UTF-8"?> <svg xmlns="http://www.w3.org/2000/svg" xmlns:xlink="http://www.w3.org/1999/xlink" version="1.1" id="Layer_1" x="0px" y="0px" viewBox="0 0 772.9 180.8" style="enable-background:new 0 0 772.9 180.8;" xml:space="preserve"> <style type="text/css"> .st0{fill:#5C8EF1;} </style> <g> <path class="st0" d="M75.4,141.3c-6.3,7.9-16.5,13.3-30.5,13.3c-19.2,0-31.4-10.2-31.4-26.8c0-22.6,21.7-29.3,39.9-29.3h20.1v-2.5 c0-12.4-8.3-18-19.2-18c-10.1,0-19,4.5-26.8,11.7l-10.6-9.2c6.1-13.1,21.9-24.4,42.9-24.4c25.1,0,41.5,13.5,41.5,39.3v57H75.4 L75.4,141.3L75.4,141.3z M53.8,137.6c10.8,0,19.6-7,19.6-16.9v-7.9h-16c-12,0-18,4.3-18,12.4C39.5,132.7,45.2,137.6,53.8,137.6z"></path> <path class="st0" d="M166.3,78.5c-10.6,0-17.1,8.3-17.1,18.7v55.3H121V58.3h26.4v12c6.5-8.8,16.5-14.2,28.7-14.2 c14,0,24.2,5,29.6,15.6c6.6-9.5,17.6-15.6,31.3-15.6c21.4,0,33.9,11.7,33.9,37.2v59.1h-28.2V97.2c0-12.8-6.1-18.7-15.6-18.7 c-10.6,0-17.1,8.3-17.1,18.7v55.3h-28.2V97.2C181.9,84.4,175.8,78.5,166.3,78.5L166.3,78.5z"></path> <path class="st0" d="M286.5,105.2c0-29.1,21.9-49,51.6-49c31.4,0,49.9,23.5,46.5,52.5h-69.9c2.2,15.3,14,23.7,28.2,23.7 c11.7,0,22.1-4.8,30.7-12.6l11.1,7.4c-4,9.2-20.1,27.5-46.5,27.5C309.1,154.6,286.5,135,286.5,105.2L286.5,105.2z M358.7,94.6 c-0.7-12-7.9-21.2-20.7-21.2c-10.8,0-20.3,6.7-23,21.2H358.7L358.7,94.6z"></path> <path class="st0" d="M447.6,78.5c-11,0-17.8,8.1-17.8,18.5v55.5h-28.2V58.3H428v12.2c6.7-8.8,16.9-14.4,29.5-14.4 c21.7,0,34.7,11.5,34.7,37v59.3h-28.2V97C463.9,84.2,457.5,78.5,447.6,78.5L447.6,78.5z"></path> <path class="st0" d="M526.4,13.6c9,0,16.2,7.5,16.2,16.3s-7.2,16.3-16.2,16.3s-16.4-7.5-16.4-16.3S517.4,13.6,526.4,13.6z M512.2,58.3h28.2v94.1h-28.2V58.3z"></path> <path class="st0" d="M568.5,122.3V78.8h-14.4V65.4l4.3-1.6c7.9-3.8,14.9-11,20.5-23.7l1.3-5.8h16.5v24.1h28.2v20.5h-28.2V121 c0,9,5.8,14.2,13.7,14.2c4.3,0,10.2-1.1,14.2-2.2l2.2,15.3c-5.9,3.4-17.1,6.3-28,6.3C580,154.6,568.5,141.7,568.5,122.3 L568.5,122.3z"></path> <path class="st0" d="M654.7,13.6c9,0,16.2,7.5,16.2,16.3s-7.2,16.3-16.2,16.3s-16.3-7.5-16.3-16.3S645.7,13.6,654.7,13.6z M640.5,58.3h28.2v94.1h-28.2V58.3z"></path> <path class="st0" d="M725.9,163.3c-9-10.8-15.6-15-24.1-15c-7.7,0-12.9,4.6-15.1,4.6c-2.9,0-5-3.7-5-9.7c0-9.7,5.5-19.7,15.1-23.8 l36.5-38h-24.1l-6.7,9.3c-2.9,4.1-5,5.8-7.2,5.8c-4.1,0-6.8-6.3-6.8-14.8c0-19.7,8.6-33.4,23.9-33.4c7.5,0,28.8,1.5,37,2.6 c0.7-4.1,2.4-6.5,4.9-6.5c5.2,0,10.3,9.1,10.3,18.6c0,7.8-2.9,13.9-9.4,20.4l-32.9,35.1c22.1,1.3,36.1,10.6,36.1,24.7 c0,12.4-11.6,29.7-20,29.7C734.8,172.8,731.9,170.6,725.9,163.3L725.9,163.3z"></path> </g> </svg> 